<svg width="100" height="80" viewBox="0 0 100 80" fill="none" xmlns="http://www.w3.org/2000/svg">
<g clip-path="url(#clip0_21_31)">
<path fill-rule="evenodd" clip-rule="evenodd" d="M48.5 11.5C48.5 13.1667 48.5 14.8333 48.5 16.5C43.5374 17.9858 38.8707 19.9858 34.5 22.5C32.1732 22.6646 30.0065 23.3313 28 24.5C27.5004 31.1583 27.3337 37.825 27.5 44.5C27.6741 46.861 28.0074 49.1944 28.5 51.5C27.9653 53.4456 26.632 54.4456 24.5 54.5C22.7953 47.9884 22.1287 41.3218 22.5 34.5C22.2 29.9014 22.5333 25.4014 23.5 21C31.818 17.7283 40.1514 14.5617 48.5 11.5Z" fill="#97FCE6"/>
<path fill-rule="evenodd" clip-rule="evenodd" d="M57.5 14.5C69.6926 12.7797 79.8592 16.4463 88 25.5C92.1468 31.3242 92.4801 37.3242 89 43.5C83.8345 48.846 78.0012 53.1794 71.5 56.5C73.0911 53.0388 73.7578 49.3721 73.5 45.5C74.6561 37.6775 74.8228 29.6775 74 21.5C68.3755 19.2434 62.8755 16.91 57.5 14.5Z" fill="#E8EFFE"/>
<path fill-rule="evenodd" clip-rule="evenodd" d="M48.5 11.5C51.4018 12.7837 54.4018 13.7837 57.5 14.5C62.8755 16.91 68.3755 19.2434 74 21.5C74.8228 29.6775 74.6561 37.6775 73.5 45.5C73.631 44.7611 73.4643 44.0944 73 43.5C71.9887 44.3366 70.8221 44.67 69.5 44.5C69.5 37.8333 69.5 31.1667 69.5 24.5C62.5563 22.9632 55.8896 20.6298 49.5 17.5C49.5 16.8333 49.1667 16.5 48.5 16.5C48.5 14.8333 48.5 13.1667 48.5 11.5Z" fill="#41EDC8"/>
<path fill-rule="evenodd" clip-rule="evenodd" d="M48.5 16.5C49.1667 16.5 49.5 16.8333 49.5 17.5C48.5151 21.6344 48.1818 25.9677 48.5 30.5C41.8333 33.5 35.1667 36.5 28.5 39.5C28.3342 34.8215 28.5008 30.1548 29 25.5C31.0581 24.7709 32.8914 23.7709 34.5 22.5C38.8707 19.9858 43.5374 17.9858 48.5 16.5Z" fill="#06CFA4"/>
<path fill-rule="evenodd" clip-rule="evenodd" d="M34.5 22.5C32.8914 23.7709 31.0581 24.7709 29 25.5C28.5008 30.1548 28.3342 34.8215 28.5 39.5C28.7845 41.4147 28.4511 43.0813 27.5 44.5C27.3337 37.825 27.5004 31.1583 28 24.5C30.0065 23.3313 32.1732 22.6646 34.5 22.5Z" fill="#03896C"/>
<path fill-rule="evenodd" clip-rule="evenodd" d="M22.5 34.5C22.1287 41.3218 22.7953 47.9884 24.5 54.5C26.5827 60.3315 29.916 65.3315 34.5 69.5C27.4739 70.1952 20.8072 69.0285 14.5 66C9.37031 61.7823 8.20364 56.6157 11 50.5C13.6297 44.2166 17.4631 38.8833 22.5 34.5Z" fill="#EDF3FE"/>
<path fill-rule="evenodd" clip-rule="evenodd" d="M48.5 30.5C48.185 34.3714 48.5184 38.0381 49.5 41.5C46.7772 47.4679 43.6105 47.8012 40 42.5C38.198 44.2729 38.3647 45.9395 40.5 47.5C36.6872 48.4375 33.0205 49.7709 29.5 51.5C29.1667 51.5 28.8333 51.5 28.5 51.5C28.0074 49.1944 27.6741 46.861 27.5 44.5C28.4511 43.0813 28.7845 41.4147 28.5 39.5C35.1667 36.5 41.8333 33.5 48.5 30.5Z" fill="#09BF98"/>
<path fill-rule="evenodd" clip-rule="evenodd" d="M48.5 48.5C47.2058 49.2899 46.0391 50.2899 45 51.5C43.6288 49.9586 42.1288 48.6253 40.5 47.5C38.3647 45.9395 38.198 44.2729 40 42.5C43.6105 47.8012 46.7772 47.4679 49.5 41.5C51.7966 39.7059 53.9633 37.7059 56 35.5C56.8699 36.1079 57.3699 36.9412 57.5 38C54.6778 41.6553 51.6778 45.1553 48.5 48.5Z" fill="#E9EEFB"/>
<path fill-rule="evenodd" clip-rule="evenodd" d="M49.5 17.5C55.8896 20.6298 62.5563 22.9632 69.5 24.5C69.5 31.1667 69.5 37.8333 69.5 44.5C68.4529 57.8886 61.4529 66.5553 48.5 70.5C48.5 63.1667 48.5 55.8333 48.5 48.5C51.6778 45.1553 54.6778 41.6553 57.5 38C57.3699 36.9412 56.8699 36.1079 56 35.5C53.9633 37.7059 51.7966 39.7059 49.5 41.5C48.5184 38.0381 48.185 34.3714 48.5 30.5C48.1818 25.9677 48.5151 21.6344 49.5 17.5Z" fill="#00A682"/>
<path fill-rule="evenodd" clip-rule="evenodd" d="M40.5 47.5C42.1288 48.6253 43.6288 49.9586 45 51.5C46.0391 50.2899 47.2058 49.2899 48.5 48.5C48.5 55.8333 48.5 63.1667 48.5 70.5C38.4238 67.7573 32.0904 61.424 29.5 51.5C33.0205 49.7709 36.6872 48.4375 40.5 47.5Z" fill="#00A682"/>
<path fill-rule="evenodd" clip-rule="evenodd" d="M73.5 45.5C73.7578 49.3721 73.0911 53.0388 71.5 56.5C66.8049 66.3581 59.1382 72.6914 48.5 75.5C48.5 73.8333 48.5 72.1667 48.5 70.5C61.4529 66.5553 68.4529 57.8886 69.5 44.5C70.8221 44.67 71.9887 44.3366 73 43.5C73.4643 44.0944 73.631 44.7611 73.5 45.5Z" fill="#32D8B4"/>
<path fill-rule="evenodd" clip-rule="evenodd" d="M81.5 52.5C83.0481 52.8212 83.7148 53.8212 83.5 55.5C87.5 56.1667 87.5 56.8333 83.5 57.5C82.8333 61.5 82.1667 61.5 81.5 57.5C77.5 56.8333 77.5 56.1667 81.5 55.5C81.5 54.5 81.5 53.5 81.5 52.5Z" fill="#C6F5EA"/>
<path fill-rule="evenodd" clip-rule="evenodd" d="M28.5 51.5C28.8333 51.5 29.1667 51.5 29.5 51.5C32.0904 61.424 38.4238 67.7573 48.5 70.5C48.5 72.1667 48.5 73.8333 48.5 75.5C43.5708 74.0334 38.9041 72.0334 34.5 69.5C29.916 65.3315 26.5827 60.3315 24.5 54.5C26.632 54.4456 27.9653 53.4456 28.5 51.5Z" fill="#41EDC8"/>
</g>
<defs>
<clipPath id="clip0_21_31">
<rect width="100" height="80" fill="white"/>
</clipPath>
</defs>
</svg>
