<svg width="100" height="80" viewBox="0 0 100 80" fill="none" xmlns="http://www.w3.org/2000/svg">
<path opacity="0.972" fill-rule="evenodd" clip-rule="evenodd" d="M56.5 9.20002C55.0937 9.5785 54.427 10.3785 54.5 11.6C53.3951 12.4804 52.0618 13.0137 50.5 13.2C49.5 13.2 48.5 13.2 47.5 13.2C45.9382 13.0137 44.6049 12.4804 43.5 11.6C43.4431 10.7128 43.1098 9.91282 42.5 9.20002C42.49 3.74861 45.8233 1.74861 52.5 3.20002C55.0244 4.70639 56.3577 6.70639 56.5 9.20002Z" fill="#00A682"/>
<path opacity="0.833" fill-rule="evenodd" clip-rule="evenodd" d="M42.5 9.20001C43.1098 9.91281 43.4431 10.7128 43.5 11.6C34.6179 15.0197 25.6179 18.2197 16.5 21.2C16.1667 20.1334 15.8333 19.0667 15.5 18C24.4197 14.9103 33.4197 11.977 42.5 9.20001Z" fill="#97FCE6"/>
<path opacity="0.825" fill-rule="evenodd" clip-rule="evenodd" d="M56.5 9.20001C65.1667 12.1334 73.8333 15.0667 82.5 18C82.5674 19.167 82.2341 20.2337 81.5 21.2C72.3821 18.2197 63.3821 15.0197 54.5 11.6C54.427 10.3785 55.0937 9.57849 56.5 9.20001Z" fill="#97FCE6"/>
<path opacity="0.706" fill-rule="evenodd" clip-rule="evenodd" d="M47.5 13.2C48.5 13.2 49.5 13.2 50.5 13.2C51.8333 16.9334 51.8333 20.6667 50.5 24.4C49.5 25.4667 48.5 25.4667 47.5 24.4C47.5 20.6667 47.5 16.9334 47.5 13.2Z" fill="#047159"/>
<path opacity="0.983" fill-rule="evenodd" clip-rule="evenodd" d="M90.5 27.6C89.1667 27.6 87.8333 27.6 86.5 27.6C85.2905 27.2543 84.2905 26.721 83.5 26C83.0679 25.0324 82.4013 24.2324 81.5 23.6C81.5 22.8 81.5 22 81.5 21.2C82.2341 20.2337 82.5674 19.167 82.5 18C91.653 14.9296 95.4864 17.3296 94 25.2C92.8549 26.1091 91.6883 26.9091 90.5 27.6Z" fill="#00A682"/>
<path opacity="0.984" fill-rule="evenodd" clip-rule="evenodd" d="M15.5 18C15.8333 19.0666 16.1667 20.1334 16.5 21.2C16.5 22 16.5 22.8 16.5 23.6C15.8902 24.3128 15.5569 25.1128 15.5 26C14.1667 26.5334 12.8333 27.0666 11.5 27.6C10.5 27.6 9.49996 27.6 8.49996 27.6C3.73877 25.907 2.23877 22.9737 3.99996 18.8C7.56259 15.9627 11.396 15.6961 15.5 18Z" fill="#00A682"/>
<path opacity="0.946" fill-rule="evenodd" clip-rule="evenodd" d="M16.5 23.6C20.9656 25.2532 25.299 27.1198 29.5 29.2C30.8333 30.5334 30.8333 31.8666 29.5 33.2C24.8333 30.8 20.1667 28.4 15.5 26C15.5569 25.1128 15.8902 24.3128 16.5 23.6Z" fill="#047159"/>
<path opacity="0.94" fill-rule="evenodd" clip-rule="evenodd" d="M47.5 24.4C48.5 25.4666 49.5 25.4666 50.5 24.4C53.8333 24.4 57.1667 24.4 60.5 24.4C60.7828 25.0313 61.2828 25.5646 62 26C62.6667 35.3334 62.6667 44.6666 62 54C61.2828 54.4354 60.7828 54.9687 60.5 55.6C57.1667 55.6 53.8333 55.6 50.5 55.6C49.5 54.5334 48.5 54.5334 47.5 55.6C42.1563 55.7328 36.8229 55.5995 31.5 55.2C29.9632 54.3123 29.2965 53.1123 29.5 51.6C30.1667 51.6 30.5 51.3334 30.5 50.8C30.7678 49.5208 30.4345 48.4541 29.5 47.6C29.5 42.8 29.5 38 29.5 33.2C30.8333 31.8666 30.8333 30.5334 29.5 29.2C28.9648 27.0092 29.9648 25.5426 32.5 24.8C37.4889 24.4006 42.4889 24.2673 47.5 24.4Z" fill="#00A682"/>
<path opacity="0.841" fill-rule="evenodd" clip-rule="evenodd" d="M60.5 24.4C65.5601 23.7347 68.2267 25.3347 68.5 29.2C67.2801 30.6269 67.2801 31.9603 68.5 33.2C68.5 38 68.5 42.8 68.5 47.6C67.1667 48.6666 67.1667 49.7333 68.5 50.8C68.5026 55.0524 65.836 56.6524 60.5 55.6C60.7828 54.9687 61.2828 54.4353 62 54C62.6667 44.6666 62.6667 35.3333 62 26C61.2828 25.5646 60.7828 25.0313 60.5 24.4Z" fill="#00A682"/>
<path opacity="0.876" fill-rule="evenodd" clip-rule="evenodd" d="M81.5 23.6C82.4013 24.2324 83.0679 25.0324 83.5 26C78.2985 28.2104 73.2985 30.6104 68.5 33.2C67.2801 31.9603 67.2801 30.627 68.5 29.2C72.674 27.1298 77.0074 25.2632 81.5 23.6Z" fill="#047159"/>
<path opacity="0.708" fill-rule="evenodd" clip-rule="evenodd" d="M8.5 27.6C9.5 27.6 10.5 27.6 11.5 27.6C11.5 36.1334 11.5 44.6666 11.5 53.2C10.5 53.2 9.5 53.2 8.5 53.2C7.16667 44.6666 7.16667 36.1334 8.5 27.6Z" fill="#97FCE6"/>
<path opacity="0.71" fill-rule="evenodd" clip-rule="evenodd" d="M86.5 27.6C87.8333 27.6 89.1667 27.6 90.5 27.6C90.5 36.1334 90.5 44.6666 90.5 53.2C89.1667 53.2 87.8333 53.2 86.5 53.2C86.5 44.6666 86.5 36.1334 86.5 27.6Z" fill="#97FCE6"/>
<path fill-rule="evenodd" clip-rule="evenodd" d="M57.5 32.4C58.5 32.4 59.5 32.4 60.5 32.4C60.83 37.7598 60.4967 43.0932 59.5 48.4C58.914 48.2326 58.414 47.9659 58 47.6C57.5005 42.5403 57.3338 37.4737 57.5 32.4Z" fill="#EAF0FE"/>
<path fill-rule="evenodd" clip-rule="evenodd" d="M44.5 32.4C47.0495 32.4486 48.5495 33.5153 49 35.6C50.5562 39.4228 52.3895 43.1562 54.5 46.8C54.1667 47.6 53.5 48.1334 52.5 48.4C51.0499 47.3202 50.3832 45.9868 50.5 44.4C45.2943 43.583 41.461 44.9164 39 48.4C38.3076 47.9798 37.8076 47.4465 37.5 46.8C39.8414 41.977 42.1747 37.177 44.5 32.4Z" fill="#EAF0FE"/>
<path fill-rule="evenodd" clip-rule="evenodd" d="M45.5 36.4C47.2671 38.2333 48.2671 40.3666 48.5 42.8C46.396 43.0391 44.396 42.7725 42.5 42C43.7878 40.209 44.7878 38.3423 45.5 36.4Z" fill="#1DD8AF"/>
<path opacity="0.85" fill-rule="evenodd" clip-rule="evenodd" d="M29.5 47.6C30.4345 48.4541 30.7678 49.5208 30.5 50.8C29.8333 50.8 29.5 51.0666 29.5 51.6C25.0344 53.2532 20.701 55.1198 16.5 57.2C15.8333 56.1334 15.1667 55.0666 14.5 54C19.6318 52.0804 24.6318 49.947 29.5 47.6Z" fill="#047159"/>
<path opacity="0.924" fill-rule="evenodd" clip-rule="evenodd" d="M68.5 47.6C73.3682 49.947 78.3682 52.0804 83.5 54C83.573 55.2215 82.9063 56.0215 81.5 56.4C76.9317 54.8778 72.5984 53.0112 68.5 50.8C67.1667 49.7334 67.1667 48.6666 68.5 47.6Z" fill="#047159"/>
<path opacity="0.969" fill-rule="evenodd" clip-rule="evenodd" d="M8.49998 53.2C9.49998 53.2 10.5 53.2 11.5 53.2C12.609 53.2455 13.609 53.5122 14.5 54C15.1667 55.0667 15.8333 56.1334 16.5 57.2C16.5 57.7334 16.5 58.2667 16.5 58.8C16.1667 59.8667 15.8333 60.9334 15.5 62C6.89538 65.3847 3.06205 63.2514 3.99998 55.6C5.12899 54.2871 6.62899 53.4871 8.49998 53.2Z" fill="#00A682"/>
<path fill-rule="evenodd" clip-rule="evenodd" d="M86.5 53.2C87.8333 53.2 89.1667 53.2 90.5 53.2C91.7206 53.6227 92.8873 54.156 94 54.8C95.4541 62.8469 91.6208 65.2469 82.5 62C82.5674 60.8331 82.2341 59.7663 81.5 58.8C81.5 58 81.5 57.2 81.5 56.4C82.9063 56.0215 83.573 55.2215 83.5 54C84.391 53.5122 85.391 53.2455 86.5 53.2Z" fill="#00A682"/>
<path opacity="0.706" fill-rule="evenodd" clip-rule="evenodd" d="M50.5 55.6C51.8333 59.3334 51.8333 63.0666 50.5 66.8C49.5 66.8 48.5 66.8 47.5 66.8C47.5 63.0666 47.5 59.3334 47.5 55.6C48.5 54.5334 49.5 54.5334 50.5 55.6Z" fill="#047159"/>
<path opacity="0.83" fill-rule="evenodd" clip-rule="evenodd" d="M81.5 58.8C82.2341 59.7663 82.5674 60.833 82.5 62C74.0016 65.2442 65.3349 68.1776 56.5 70.8C55.0937 70.4215 54.427 69.6215 54.5 68.4C63.6179 65.4197 72.6179 62.2197 81.5 58.8Z" fill="#97FCE6"/>
<path opacity="0.812" fill-rule="evenodd" clip-rule="evenodd" d="M16.5 58.8C25.5 62 34.5 65.2 43.5 68.4C43.1667 69.4666 42.8333 70.5333 42.5 71.6C33.6223 68.1823 24.6223 64.9823 15.5 62C15.8333 60.9333 16.1667 59.8666 16.5 58.8Z" fill="#97FCE6"/>
<path opacity="0.994" fill-rule="evenodd" clip-rule="evenodd" d="M47.5 66.8C48.5 66.8 49.5 66.8 50.5 66.8C52.0618 66.9863 53.3951 67.5196 54.5 68.4C54.427 69.6215 55.0937 70.4215 56.5 70.8C55.9375 76.3622 52.2709 78.3622 45.5 76.8C42.8681 75.4094 41.8681 73.6761 42.5 71.6C42.8333 70.5333 43.1667 69.4666 43.5 68.4C44.6049 67.5196 45.9382 66.9863 47.5 66.8Z" fill="#00A682"/>
</svg>
