<svg width="100" height="80" viewBox="0 0 100 80" fill="none" xmlns="http://www.w3.org/2000/svg">
<g clip-path="url(#clip0_21_60)">
<path fill-rule="evenodd" clip-rule="evenodd" d="M51.5 3.5C53.0481 3.82124 53.7148 4.82124 53.5 6.5C57.5 7.16667 57.5 7.83333 53.5 8.5C52.8333 12.5 52.1667 12.5 51.5 8.5C47.5 7.83333 47.5 7.16667 51.5 6.5C51.5 5.5 51.5 4.5 51.5 3.5Z" fill="#C6F5EA"/>
<path fill-rule="evenodd" clip-rule="evenodd" d="M76.5 54.5C76.5 50.1667 76.5 45.8333 76.5 41.5C74.7512 40.0149 72.7512 39.0149 70.5 38.5C70.6661 32.8236 70.4994 27.1569 70 21.5C69.3292 20.7476 68.4959 20.4142 67.5 20.5C60.5 20.5 53.5 20.5 46.5 20.5C61.5679 13.4401 75.0679 15.7734 87 27.5C92.7048 36.6851 91.2048 44.5184 82.5 51C80.5952 52.4213 78.5952 53.588 76.5 54.5Z" fill="#EAF0FE"/>
<path fill-rule="evenodd" clip-rule="evenodd" d="M46.5 20.5C53.5 20.5 60.5 20.5 67.5 20.5C54.4441 24.0136 41.4441 27.6803 28.5 31.5C27.8333 31.5 27.1667 31.5 26.5 31.5C26.2108 27.8936 26.5442 24.3936 27.5 21C33.8246 20.5005 40.1579 20.3338 46.5 20.5Z" fill="#97FCE6"/>
<path fill-rule="evenodd" clip-rule="evenodd" d="M67.5 20.5C68.4959 20.4142 69.3292 20.7476 70 21.5C70.4994 27.1569 70.6661 32.8236 70.5 38.5C62.5 38.5 54.5 38.5 46.5 38.5C45.1092 36.1097 43.1092 34.4431 40.5 33.5C40.3893 32.8826 40.056 32.3826 39.5 32C35.8484 31.5014 32.1817 31.3347 28.5 31.5C41.4441 27.6803 54.4441 24.0136 67.5 20.5Z" fill="#19CFA8"/>
<path fill-rule="evenodd" clip-rule="evenodd" d="M26.4999 31.5C27.1666 31.5 27.8332 31.5 28.4999 31.5C32.1816 31.3347 35.8483 31.5014 39.4999 32C40.0559 32.3826 40.3892 32.8826 40.4999 33.5C41.4522 35.1123 41.7855 36.6123 41.4999 38C34.0592 48.7144 27.3925 59.8811 21.4999 71.5C20.8332 71.5 20.4999 71.1667 20.4999 70.5C20.4999 59.5 20.4999 48.5 20.4999 37.5C20.3432 36.1266 20.5099 34.7932 20.9999 33.5C22.9482 32.8906 24.7815 32.224 26.4999 31.5Z" fill="#41EDC8"/>
<path fill-rule="evenodd" clip-rule="evenodd" d="M20.5 37.5C20.5 48.5 20.5 59.5 20.5 70.5C10.9594 68.8088 7.29277 63.3088 9.5 54C8.49114 52.8319 7.49114 51.6652 6.5 50.5C7.8883 47.9211 9.3883 47.9211 11 50.5C13.2573 45.4229 16.424 41.0896 20.5 37.5Z" fill="#EEF3FF"/>
<path fill-rule="evenodd" clip-rule="evenodd" d="M40.5 33.5C43.1092 34.4431 45.1092 36.1097 46.5 38.5C50.3123 39.3238 54.3123 39.8238 58.5 40C53.8794 46.0657 49.8794 52.5657 46.5 59.5C41.1667 59.5 35.8333 59.5 30.5 59.5C30.5 60.5 30.5 61.5 30.5 62.5C32.1667 62.5 33.8333 62.5 35.5 62.5C32.7758 65.2817 31.1092 68.615 30.5 72.5C27.2869 72.81 24.2869 72.4767 21.5 71.5C27.3926 59.8811 34.0593 48.7144 41.5 38C41.7856 36.6123 41.4523 35.1123 40.5 33.5Z" fill="#13D3A9"/>
<path fill-rule="evenodd" clip-rule="evenodd" d="M46.5 38.5C54.5 38.5 62.5 38.5 70.5 38.5C72.7512 39.0149 74.7512 40.0149 76.5 41.5C69.3389 51.5414 63.3389 61.8748 58.5 72.5C49.1667 72.5 39.8333 72.5 30.5 72.5C31.1092 68.615 32.7758 65.2817 35.5 62.5C40.5 62.5 45.5 62.5 50.5 62.5C50.5 61.5 50.5 60.5 50.5 59.5C49.1667 59.5 47.8333 59.5 46.5 59.5C49.8794 52.5657 53.8794 46.0657 58.5 40C54.3123 39.8238 50.3123 39.3238 46.5 38.5Z" fill="#04B18B"/>
<path fill-rule="evenodd" clip-rule="evenodd" d="M76.5 41.5C76.5 45.8333 76.5 50.1667 76.5 54.5C76.6661 60.1764 76.4994 65.8431 76 71.5C70.2588 72.4749 64.4254 72.8082 58.5 72.5C63.3389 61.8748 69.3389 51.5414 76.5 41.5Z" fill="#00A682"/>
<path fill-rule="evenodd" clip-rule="evenodd" d="M46.5 59.5C47.8333 59.5 49.1667 59.5 50.5 59.5C50.5 60.5 50.5 61.5 50.5 62.5C45.5 62.5 40.5 62.5 35.5 62.5C33.8333 62.5 32.1667 62.5 30.5 62.5C30.5 61.5 30.5 60.5 30.5 59.5C35.8333 59.5 41.1667 59.5 46.5 59.5Z" fill="#FEFFFE"/>
</g>
<defs>
<clipPath id="clip0_21_60">
<rect width="100" height="80" fill="white"/>
</clipPath>
</defs>
</svg>
