<svg width="298" height="63" viewBox="0 0 298 63" fill="none" xmlns="http://www.w3.org/2000/svg">
<path d="M43.5 2.25C42.9167 3.58333 42.3958 4.75 41.9375 5.75C41.4792 6.75 41.0833 7.60417 40.75 8.3125C40.375 9.10417 40.0625 9.8125 39.8125 10.4375C39.6042 10.8958 39.3333 11.5208 39 12.3125C38.6667 13.0208 38.25 13.9583 37.75 15.125C37.2917 16.25 36.6875 17.7083 35.9375 19.5C35.5625 17.9583 35.1042 16.6042 34.5625 15.4375C34.0208 14.2708 33.4375 13.25 32.8125 12.375C32.1875 11.5 31.5208 10.7917 30.8125 10.25C30.1458 9.66667 29.4792 9.1875 28.8125 8.8125C27.2708 7.97917 25.6458 7.52083 23.9375 7.4375C21.6875 7.5625 19.9167 7.9375 18.625 8.5625C17.375 9.14583 16.4583 9.83333 15.875 10.625C15.2917 11.375 14.9792 12.1667 14.9375 13C14.8958 13.7917 15 14.4583 15.25 15C15.4583 15.5 16.1875 16.0833 17.4375 16.75C18.7292 17.4167 20.2708 18.1875 22.0625 19.0625C23.8958 19.8958 25.8542 20.8542 27.9375 21.9375C30.0208 22.9792 31.9375 24.1458 33.6875 25.4375C35.4792 26.6875 36.9792 28.0625 38.1875 29.5625C39.4375 31.0208 40.125 32.5833 40.25 34.25C40.375 36.375 40.3542 38.2917 40.1875 40C40.0208 41.7083 39.4375 43.1667 38.4375 44.375C37.4375 45.5833 35.875 46.5417 33.75 47.25C31.6667 47.9583 28.7708 48.3958 25.0625 48.5625C21.2292 48.7292 18.0833 48.5208 15.625 47.9375C13.1667 47.3542 11.1667 46.5625 9.625 45.5625C8.125 44.5625 7 43.4583 6.25 42.25C5.54167 41.0417 5.02083 39.8958 4.6875 38.8125C4.35417 37.6875 4.125 36.7292 4 35.9375C3.875 35.1042 3.66667 34.6042 3.375 34.4375C3.04167 34.2292 2.70833 34.0417 2.375 33.875C2.08333 33.7083 1.77083 33.5625 1.4375 33.4375C1.10417 33.2708 0.770833 33.125 0.4375 33L18.625 30.0625C17.5833 30.8958 16.7708 31.6667 16.1875 32.375C15.6458 33.0833 15.2292 33.7083 14.9375 34.25C14.6042 34.875 14.375 35.4583 14.25 36C14.1667 36.5833 14.3542 37.3125 14.8125 38.1875C15.2708 39.0625 15.8958 39.9167 16.6875 40.75C17.5208 41.5417 18.4792 42.2083 19.5625 42.75C20.6458 43.2917 21.7708 43.5208 22.9375 43.4375C24.3958 43.3125 25.5833 42.9583 26.5 42.375C27.4167 41.75 28.1042 40.9792 28.5625 40.0625C29.0625 39.1458 29.3542 38.1458 29.4375 37.0625C29.5208 35.9792 29.4167 34.9167 29.125 33.875C28.875 32.7917 28.4583 31.7917 27.875 30.875C27.2917 29.9167 26.6042 29.125 25.8125 28.5C25.1042 28 24 27.5208 22.5 27.0625C21.0417 26.6042 19.3958 26.1042 17.5625 25.5625C15.7708 25.0208 13.9167 24.3958 12 23.6875C10.125 22.9792 8.41667 22.1042 6.875 21.0625C5.375 20.0208 4.16667 18.7917 3.25 17.375C2.375 15.9583 2.04167 14.25 2.25 12.25C2.41667 10.5417 2.95833 9.125 3.875 8C4.83333 6.83333 6.02083 5.91667 7.4375 5.25C8.89583 4.54167 10.5 4.02083 12.25 3.6875C14.0417 3.35417 15.8542 3.16667 17.6875 3.125C19.5625 3.04167 21.3958 3.0625 23.1875 3.1875C25.0208 3.3125 26.6667 3.45833 28.125 3.625C29.5833 3.79167 30.8125 3.95833 31.8125 4.125C32.8542 4.25 33.5 4.33333 33.75 4.375C34.8333 4.45833 35.9167 4.4375 37 4.3125C37.9583 4.22917 39 4.04167 40.125 3.75C41.2917 3.41667 42.4167 2.91667 43.5 2.25ZM43.8125 0.625C44.7708 0.791667 45.6458 0.916667 46.4375 1C47.2292 1.04167 47.8958 1.08333 48.4375 1.125C49.0625 1.16667 49.6042 1.1875 50.0625 1.1875C50.6875 1.14583 51.4167 1.08333 52.25 1C52.9583 0.916667 53.8125 0.8125 54.8125 0.6875C55.8542 0.5625 57.0417 0.395833 58.375 0.1875C57.75 0.520833 57.2292 0.854167 56.8125 1.1875C56.3958 1.47917 56.0625 1.79167 55.8125 2.125C55.5208 2.5 55.2917 2.85417 55.125 3.1875C54.9167 3.72917 54.6875 4.85417 54.4375 6.5625C54.1875 8.02083 53.875 10.1875 53.5 13.0625C53.1667 15.9375 52.7292 19.8333 52.1875 24.75C53.6875 23.25 55.1042 22.125 56.4375 21.375C57.8125 20.5833 59.0208 20.0208 60.0625 19.6875C61.2708 19.3125 62.3958 19.125 63.4375 19.125C64.7292 19.25 66.0417 19.6667 67.375 20.375C68.75 21.0417 70.0208 21.8333 71.1875 22.75C72.3958 23.6667 73.4375 24.6458 74.3125 25.6875C75.2292 26.7292 75.875 27.6458 76.25 28.4375C76.5 28.9792 76.625 29.6875 76.625 30.5625C76.625 31.3958 76.5417 32.3125 76.375 33.3125C76.2083 34.3125 75.9792 35.3333 75.6875 36.375C75.3958 37.4167 75.1042 38.3958 74.8125 39.3125C74.5625 40.2292 74.3333 41.0417 74.125 41.75C73.9167 42.4167 73.7917 42.8958 73.75 43.1875C73.6667 43.8125 73.7083 44.4167 73.875 45C74 45.5 74.25 46.0417 74.625 46.625C75 47.1667 75.5625 47.625 76.3125 48C75.7292 47.9167 75.1042 47.8542 74.4375 47.8125C73.8125 47.7292 73.2083 47.6667 72.625 47.625C71.9583 47.5833 71.2917 47.5625 70.625 47.5625H68.375C67.6667 47.5625 66.8542 47.5833 65.9375 47.625C65.0208 47.625 64.0208 47.6458 62.9375 47.6875C63.5208 47.4792 64.0208 47.2083 64.4375 46.875C64.8542 46.5 65.2083 46.1458 65.5 45.8125C65.8333 45.4375 66.125 45.0417 66.375 44.625C66.5417 44.2917 66.75 43.6667 67 42.75C67.25 41.7917 67.4792 40.7083 67.6875 39.5C67.8958 38.25 68.0417 36.9375 68.125 35.5625C68.25 34.1875 68.2708 32.875 68.1875 31.625C68.1458 30.3333 67.9583 29.1875 67.625 28.1875C67.3333 27.1875 66.875 26.4583 66.25 26C64.375 24.5833 62.6667 23.8958 61.125 23.9375C59.625 23.9375 58.1875 24.5417 56.8125 25.75C56.3125 26.2083 55.8333 26.6667 55.375 27.125C54.9583 27.5417 54.5 28.0417 54 28.625C53.5 29.1667 53.0417 29.7292 52.625 30.3125C52.625 30.9375 52.6458 31.625 52.6875 32.375C52.7292 33.125 52.7708 33.8542 52.8125 34.5625C52.8542 35.3542 52.9167 36.1458 53 36.9375C53.0833 38.1458 53.2083 39.3333 53.375 40.5C53.5 41.5 53.6667 42.6042 53.875 43.8125C54.0833 44.9792 54.3542 46.0417 54.6875 47C54.1458 46.9167 53.5833 46.8958 53 46.9375C52.4167 46.9375 51.8542 46.9375 51.3125 46.9375C50.6875 46.9792 50.0833 47 49.5 47C48.9583 47.0417 48.3958 47.1042 47.8125 47.1875C47.3125 47.2708 46.7708 47.3542 46.1875 47.4375C45.6042 47.4792 45.0417 47.5625 44.5 47.6875C45 46.7292 45.4167 45.7917 45.75 44.875C46.0833 43.9167 46.3542 43.0833 46.5625 42.375C46.8125 41.5417 47.0208 40.7292 47.1875 39.9375C47.3125 39.3125 47.3958 38.125 47.4375 36.375C47.5208 34.5833 47.5833 32.5417 47.625 30.25C47.6667 27.9167 47.6875 25.4583 47.6875 22.875C47.6875 20.2917 47.6667 17.8333 47.625 15.5C47.5833 13.1667 47.5 11.125 47.375 9.375C47.2917 7.625 47.1875 6.41667 47.0625 5.75C46.8958 5.08333 46.6667 4.41667 46.375 3.75C46.125 3.16667 45.7917 2.60417 45.375 2.0625C44.9583 1.47917 44.4375 1 43.8125 0.625ZM84.4375 22.6875C84.6458 22.4375 84.7708 21.9792 84.8125 21.3125C84.8958 20.6042 85.0625 19.8125 85.3125 18.9375C85.6042 18.0625 86.0833 17.1458 86.75 16.1875C87.4167 15.2292 88.5 14.3333 90 13.5C91.4583 12.6667 92.875 12.1667 94.25 12C95.625 11.8333 96.9375 11.8958 98.1875 12.1875C99.4375 12.4792 100.604 12.9375 101.688 13.5625C102.812 14.1875 103.833 14.875 104.75 15.625C105.375 16.125 105.875 16.8542 106.25 17.8125C106.625 18.7292 106.917 19.7708 107.125 20.9375C107.333 22.1042 107.479 23.3333 107.562 24.625C107.688 25.875 107.771 27.1042 107.812 28.3125C107.854 29.4792 107.875 30.5625 107.875 31.5625C107.917 32.5208 108 33.3125 108.125 33.9375C108.292 34.8542 108.583 35.6458 109 36.3125C109.417 36.9375 109.875 37.4792 110.375 37.9375C110.875 38.3542 111.375 38.6875 111.875 38.9375C112.375 39.1875 112.812 39.375 113.188 39.5C113.438 39.625 113.667 39.7083 113.875 39.75C114.292 39.9167 114.583 39.9167 114.75 39.75C114.5 40.3333 114.271 40.8333 114.062 41.25C113.854 41.6667 113.688 42.0208 113.562 42.3125C113.396 42.6458 113.25 42.9167 113.125 43.125C113 43.375 112.854 43.6042 112.688 43.8125C112.562 44.0208 112.396 44.25 112.188 44.5C111.979 44.75 111.771 45.0208 111.562 45.3125C111.021 45.1042 110.5 44.8542 110 44.5625C109.542 44.2708 109.125 44 108.75 43.75C108.292 43.4583 107.875 43.1667 107.5 42.875C107.125 42.5833 106.771 42.25 106.438 41.875C106.146 41.5417 105.833 41.1875 105.5 40.8125C105.208 40.4375 104.958 40.0208 104.75 39.5625C104.5 40.1042 103.896 40.875 102.938 41.875C102.021 42.875 100.812 43.7917 99.3125 44.625C97.8125 45.4167 96.0625 45.9792 94.0625 46.3125C92.1042 46.6458 89.9375 46.4167 87.5625 45.625C86.5208 45.2917 85.5417 44.8125 84.625 44.1875C83.7083 43.5208 82.9167 42.7292 82.25 41.8125C81.625 40.8958 81.1667 39.8542 80.875 38.6875C80.625 37.4792 80.6458 36.1458 80.9375 34.6875C81.2292 33.2292 81.75 32 82.5 31C83.25 30 84.1458 29.1875 85.1875 28.5625C86.2292 27.9375 87.3958 27.4583 88.6875 27.125C89.9792 26.7917 91.3125 26.5625 92.6875 26.4375C93.7708 26.3958 94.8542 26.4583 95.9375 26.625C96.8542 26.7917 97.8125 27.1042 98.8125 27.5625C99.8125 27.9792 100.667 28.625 101.375 29.5C101.333 27.2917 101.25 25.5417 101.125 24.25C101.042 22.9167 100.958 21.8958 100.875 21.1875C100.708 20.3542 100.562 19.7708 100.438 19.4375C100.229 19.1458 100 18.8125 99.75 18.4375C99.5417 18.0625 99.2708 17.7292 98.9375 17.4375C98.6042 17.1042 98.1875 16.8333 97.6875 16.625C97.1875 16.4167 96.6042 16.3333 95.9375 16.375C95.2292 16.4167 94.6667 16.6042 94.25 16.9375C93.8333 17.2708 93.5 17.6667 93.25 18.125C93.0417 18.5417 92.9167 19 92.875 19.5C92.8333 20 92.8542 20.4375 92.9375 20.8125C93.0208 21.0625 93.1458 21.3333 93.3125 21.625C93.4792 21.875 93.7083 22.1458 94 22.4375C94.2917 22.7292 94.6875 22.9792 95.1875 23.1875C94.2292 23.3125 93.375 23.4167 92.625 23.5C91.875 23.5417 91.2292 23.6042 90.6875 23.6875C90.0625 23.7708 89.5208 23.8333 89.0625 23.875C88.6042 23.9167 88.0625 24 87.4375 24.125C86.8958 24.2083 86.2292 24.3125 85.4375 24.4375C84.6458 24.5625 83.7292 24.7292 82.6875 24.9375C82.9375 24.6458 83.1667 24.375 83.375 24.125C83.5833 23.8333 83.7708 23.5833 83.9375 23.375C84.1042 23.125 84.2708 22.8958 84.4375 22.6875ZM93.8125 30.125C93.0625 30.1667 92.3125 30.3542 91.5625 30.6875C90.8125 30.9792 90.1458 31.4167 89.5625 32C88.9792 32.5417 88.4792 33.1875 88.0625 33.9375C87.6875 34.6458 87.5 35.4375 87.5 36.3125C87.5 37.1875 87.7083 37.9583 88.125 38.625C88.5833 39.25 89.1667 39.7708 89.875 40.1875C90.625 40.6042 91.4167 40.8542 92.25 40.9375C93.125 41.0208 93.9792 40.9375 94.8125 40.6875C95.6042 40.3958 96.3542 39.9375 97.0625 39.3125C97.7708 38.6458 98.375 37.9375 98.875 37.1875C99.375 36.3958 99.7292 35.625 99.9375 34.875C100.146 34.0833 100.167 33.4375 100 32.9375C99.6667 31.8542 98.9167 31.1042 97.75 30.6875C96.5833 30.2292 95.2708 30.0417 93.8125 30.125ZM113.5 18.0625C114.292 18.1042 115 18.125 115.625 18.125C116.292 18.0833 116.854 18.0417 117.312 18C117.854 17.9583 118.333 17.9167 118.75 17.875C119.375 17.7917 120.021 17.6875 120.688 17.5625C121.271 17.4792 121.875 17.375 122.5 17.25C123.167 17.0833 123.812 16.8958 124.438 16.6875C124.188 17.3125 123.979 17.8542 123.812 18.3125C123.646 18.7708 123.521 19.1667 123.438 19.5C123.312 19.875 123.25 20.1875 123.25 20.4375C123.208 20.7292 123.188 21.0833 123.188 21.5C123.146 22.2083 123.146 23.3542 123.188 24.9375C125.354 23.0625 127.167 21.6042 128.625 20.5625C130.125 19.5208 131.312 18.7083 132.188 18.125C133.229 17.4583 134.042 17.0208 134.625 16.8125C136.167 16.5625 137.521 16.9167 138.688 17.875C139.188 18.2917 139.667 18.8542 140.125 19.5625C140.583 20.2292 140.979 21.125 141.312 22.25C141.646 23.375 141.896 24.7292 142.062 26.3125C142.229 27.8542 142.25 29.7083 142.125 31.875C141.25 31.9583 140.458 32.0417 139.75 32.125C139.083 32.2083 138.521 32.2708 138.062 32.3125C137.521 32.3958 137.021 32.4375 136.562 32.4375L134.875 32.625C134.292 32.7083 133.562 32.7917 132.688 32.875C131.854 32.9167 130.833 33 129.625 33.125C131.375 31.7083 132.5 30.4792 133 29.4375C133.542 28.3542 133.771 27.4583 133.688 26.75C133.604 25.9583 133.229 25.2708 132.562 24.6875C131.771 24.2292 130.917 24.0625 130 24.1875C129.208 24.2708 128.292 24.625 127.25 25.25C126.208 25.875 125.104 27.0417 123.938 28.75C124.021 31.4167 124.104 33.625 124.188 35.375C124.312 37.125 124.417 38.5417 124.5 39.625C124.625 40.875 124.729 41.8542 124.812 42.5625C124.938 43.1875 125.188 43.8542 125.562 44.5625C125.854 45.1458 126.271 45.7917 126.812 46.5C127.354 47.2083 128.062 47.9167 128.938 48.625C127.104 48.5417 125.604 48.5417 124.438 48.625C123.729 48.6667 123.104 48.7083 122.562 48.75C121.979 48.8333 121.354 48.9167 120.688 49C120.104 49.0833 119.417 49.1667 118.625 49.25C117.875 49.375 117.042 49.5 116.125 49.625C116.458 49.1667 116.729 48.625 116.938 48C117.146 47.4167 117.312 46.8542 117.438 46.3125C117.604 45.6875 117.729 45.0417 117.812 44.375C117.854 43.7917 117.875 42.9167 117.875 41.75C117.917 40.5833 117.896 39.2708 117.812 37.8125C117.771 36.3125 117.708 34.7708 117.625 33.1875C117.542 31.5625 117.438 30.0417 117.312 28.625C117.188 27.2083 117.042 25.9792 116.875 24.9375C116.75 23.8542 116.604 23.1042 116.438 22.6875C116.229 22.1875 115.979 21.6875 115.688 21.1875C115.438 20.7292 115.125 20.25 114.75 19.75C114.375 19.2083 113.958 18.6458 113.5 18.0625ZM142.875 18.875C144.208 18.6667 145.292 18.5 146.125 18.375C147 18.2083 147.708 18.0833 148.25 18C148.875 17.875 149.354 17.7708 149.688 17.6875C150.021 17.6042 150.5 17.4792 151.125 17.3125C151.667 17.1458 152.375 16.9583 153.25 16.75C154.125 16.5 155.229 16.1667 156.562 15.75C156.229 16.1667 155.958 16.5417 155.75 16.875C155.583 17.1667 155.417 17.4167 155.25 17.625C155.083 17.875 154.938 18.1042 154.812 18.3125C154.688 18.5208 154.562 18.8333 154.438 19.25C154.354 19.5833 154.25 20.0625 154.125 20.6875C154 21.2708 153.896 22.0417 153.812 23C156.062 21.5833 158.125 20.5208 160 19.8125C161.917 19.1042 163.583 18.6042 165 18.3125C166.667 17.9792 168.167 17.8542 169.5 17.9375C171.167 18.0625 172.708 18.4375 174.125 19.0625C175.583 19.6458 176.896 20.3542 178.062 21.1875C179.229 22.0208 180.25 22.9375 181.125 23.9375C182 24.9375 182.688 25.9375 183.188 26.9375C183.521 27.6042 183.729 28.5625 183.812 29.8125C183.938 31.0625 183.812 32.3958 183.438 33.8125C183.062 35.2292 182.396 36.625 181.438 38C180.521 39.3333 179.208 40.3958 177.5 41.1875C174.542 42.5208 171.604 43.2708 168.688 43.4375C167.438 43.5208 166.146 43.4792 164.812 43.3125C163.521 43.1458 162.208 42.7917 160.875 42.25C159.583 41.7083 158.333 40.9375 157.125 39.9375C155.917 38.8958 154.812 37.5625 153.812 35.9375C153.479 38.0625 153.229 39.9167 153.062 41.5C152.938 43.0417 152.854 44.3333 152.812 45.375C152.771 46.5833 152.771 47.6042 152.812 48.4375C152.896 49.2708 153.062 50.1667 153.312 51.125C153.521 51.9583 153.812 52.9167 154.188 54C154.604 55.125 155.125 56.2917 155.75 57.5C155.5 57.4167 155.146 57.3542 154.688 57.3125C154.271 57.3125 153.833 57.3542 153.375 57.4375C152.875 57.5208 152.312 57.6042 151.688 57.6875C151.104 57.8125 150.458 57.9583 149.75 58.125C149.167 58.25 148.479 58.3958 147.688 58.5625C146.938 58.7708 146.167 59 145.375 59.25C145.833 58.7083 146.188 58.0833 146.438 57.375C146.729 56.7083 146.958 56.0833 147.125 55.5C147.292 54.7917 147.438 54.0833 147.562 53.375C147.604 52.75 147.667 51.5625 147.75 49.8125C147.875 48.1042 147.979 46.125 148.062 43.875C148.146 41.5833 148.208 39.1875 148.25 36.6875C148.333 34.1875 148.375 31.875 148.375 29.75C148.417 27.5833 148.417 25.75 148.375 24.25C148.333 22.75 148.25 21.875 148.125 21.625C147.958 21.3333 147.646 21.0208 147.188 20.6875C146.812 20.3958 146.271 20.1042 145.562 19.8125C144.896 19.5208 144 19.2083 142.875 18.875ZM157.75 30.25C157.458 31.2083 157.396 32.1458 157.562 33.0625C157.729 33.9792 158.146 34.8333 158.812 35.625C159.521 36.4167 160.5 37.125 161.75 37.75C163.042 38.3333 164.646 38.7708 166.562 39.0625C168.479 39.3542 169.938 39.3125 170.938 38.9375C171.938 38.5625 172.667 37.9792 173.125 37.1875C173.625 36.3542 173.958 35.3958 174.125 34.3125C174.292 33.1875 174.5 32.0208 174.75 30.8125C175 29.6458 174.958 28.4583 174.625 27.25C174.292 26 173.812 24.875 173.188 23.875C172.604 22.875 171.938 22.0625 171.188 21.4375C170.479 20.7708 169.854 20.4375 169.312 20.4375C168.021 20.4375 166.75 20.7708 165.5 21.4375C164.25 22.1042 163.104 22.9375 162.062 23.9375C161.021 24.9375 160.104 26.0208 159.312 27.1875C158.562 28.3125 158.042 29.3333 157.75 30.25ZM187.812 49.75C188.229 49.125 188.562 48.5417 188.812 48C189.062 47.4583 189.271 47 189.438 46.625C189.604 46.1667 189.729 45.75 189.812 45.375C189.854 45.125 189.875 44.3958 189.875 43.1875C189.875 41.9792 189.833 40.4583 189.75 38.625C189.708 36.7917 189.646 34.7292 189.562 32.4375C189.521 30.1458 189.438 27.8125 189.312 25.4375C189.229 23.0625 189.125 20.75 189 18.5C188.917 16.25 188.833 14.2292 188.75 12.4375C188.667 10.6042 188.583 9.10417 188.5 7.9375C188.417 6.77083 188.354 6.10417 188.312 5.9375C188.229 5.6875 188.083 5.4375 187.875 5.1875C187.458 4.6875 186.75 4.20833 185.75 3.75C187.875 3.20833 189.5 2.77083 190.625 2.4375C191.292 2.27083 191.875 2.10417 192.375 1.9375C192.833 1.77083 193.292 1.60417 193.75 1.4375C194.125 1.27083 194.542 1.08333 195 0.875C195.458 0.625 195.875 0.354167 196.25 0.0625C196.042 1.27083 195.875 2.4375 195.75 3.5625C195.625 4.6875 195.521 5.72917 195.438 6.6875C195.354 7.77083 195.312 8.8125 195.312 9.8125C195.104 11.8542 194.979 14.0833 194.938 16.5C194.938 18.875 194.958 21.2917 195 23.75C195.042 26.2083 195.125 28.6042 195.25 30.9375C195.375 33.2708 195.5 35.3958 195.625 37.3125C195.792 39.1875 195.938 40.7917 196.062 42.125C196.229 43.4167 196.354 44.25 196.438 44.625C196.604 45.25 196.771 45.8542 196.938 46.4375C197.104 46.9375 197.292 47.4583 197.5 48C197.708 48.5833 197.958 49.0417 198.25 49.375H192.188C191.646 49.375 191.125 49.3958 190.625 49.4375C190.167 49.4792 189.688 49.5208 189.188 49.5625C188.688 49.6042 188.229 49.6667 187.812 49.75ZM197.312 16.0625C198.146 16.1875 198.896 16.2917 199.562 16.375C200.188 16.4167 200.75 16.4583 201.25 16.5C201.792 16.5417 202.312 16.5625 202.812 16.5625C203.271 16.5625 203.854 16.5417 204.562 16.5C205.146 16.4583 205.896 16.4167 206.812 16.375C207.771 16.2917 208.896 16.1875 210.188 16.0625C210.104 16.2292 209.938 16.75 209.688 17.625C209.438 18.4583 209.188 19.5 208.938 20.75C208.688 21.9583 208.458 23.3125 208.25 24.8125C208.083 26.2708 208 27.7292 208 29.1875C208.042 30.6042 208.229 31.9583 208.562 33.25C208.896 34.5 209.438 35.5208 210.188 36.3125C211.771 37.9375 213.167 38.9167 214.375 39.25C215.625 39.5833 216.708 39.5417 217.625 39.125C218.542 38.7083 219.292 38.0833 219.875 37.25C220.458 36.4167 220.875 35.6458 221.125 34.9375C221.75 33.0208 222.125 31 222.25 28.875C222.333 27.0417 222.188 25 221.812 22.75C221.438 20.5 220.542 18.2083 219.125 15.875C220.208 15.9583 221.146 16.0208 221.938 16.0625C222.729 16.1042 223.417 16.1458 224 16.1875C224.667 16.2292 225.25 16.2708 225.75 16.3125C226.208 16.3542 226.75 16.3542 227.375 16.3125C227.917 16.3125 228.562 16.2917 229.312 16.25C230.104 16.1667 230.979 16.0833 231.938 16C232.104 20.0833 232.25 23.7292 232.375 26.9375C232.5 30.1042 232.583 32.9167 232.625 35.375C232.708 37.7917 232.75 39.8958 232.75 41.6875C232.75 43.4375 232.75 44.9167 232.75 46.125C232.708 49 232.583 50.8958 232.375 51.8125C232.042 53.1042 231.438 54.3958 230.562 55.6875C229.729 56.9792 228.667 58.125 227.375 59.125C226.083 60.1667 224.583 60.9583 222.875 61.5C221.208 62.0833 219.375 62.2917 217.375 62.125C215.417 61.9583 213.854 61.6875 212.688 61.3125C211.562 60.9792 210.667 60.5833 210 60.125C209.375 59.6667 208.917 59.1875 208.625 58.6875C208.375 58.1875 208.188 57.6667 208.062 57.125C207.938 56.625 207.812 56.1458 207.688 55.6875C207.562 55.2292 207.312 54.8333 206.938 54.5C206.479 54.125 206 53.75 205.5 53.375C205.042 53.0417 204.542 52.7083 204 52.375C203.5 52.0417 203 51.7708 202.5 51.5625L215.812 50.8125C215.438 51.3125 215.167 51.7708 215 52.1875C214.833 52.6042 214.729 52.9583 214.688 53.25C214.646 53.625 214.667 53.9375 214.75 54.1875C214.917 54.6875 215.208 55.2292 215.625 55.8125C216.083 56.4375 216.667 56.9167 217.375 57.25C218.083 57.625 218.917 57.75 219.875 57.625C220.875 57.5 222 56.9792 223.25 56.0625C224.292 55.2708 225.167 54 225.875 52.25C226.458 50.75 226.917 48.6458 227.25 45.9375C227.583 43.2292 227.521 39.6667 227.062 35.25C226.312 37.8333 225.292 39.8125 224 41.1875C222.708 42.5625 221.417 43.5625 220.125 44.1875C218.625 44.9375 217.062 45.3333 215.438 45.375C213.271 45.2917 211.417 45.0208 209.875 44.5625C208.333 44.0625 207.062 43.3958 206.062 42.5625C205.062 41.7292 204.271 40.75 203.688 39.625C203.146 38.4583 202.75 37.1667 202.5 35.75C202.25 34.3333 202.125 32.9167 202.125 31.5C202.125 30.0417 202.125 28.6875 202.125 27.4375C202.167 26.1875 202.188 25.0625 202.188 24.0625C202.188 23.0208 202.083 22.1875 201.875 21.5625C201.625 20.9375 201.292 20.3125 200.875 19.6875C200.542 19.1458 200.083 18.5625 199.5 17.9375C198.875 17.2708 198.146 16.6458 197.312 16.0625Z" fill="#319D69"/>
<path d="M246.125 5.6875C248.208 5.8125 249.958 5.91667 251.375 6C252.833 6.04167 254.042 6.08333 255 6.125C256.083 6.16667 257 6.16667 257.75 6.125C258.5 6.08333 259.521 5.97917 260.812 5.8125C261.896 5.6875 263.333 5.5 265.125 5.25C266.958 4.95833 269.229 4.58333 271.938 4.125C270.979 5.08333 270.229 5.95833 269.688 6.75C269.188 7.5 268.792 8.14583 268.5 8.6875C268.167 9.35417 267.938 9.91667 267.812 10.375C267.729 10.7917 267.812 11.8333 268.062 13.5C268.312 15.1667 268.667 17.1458 269.125 19.4375C269.583 21.6875 270.083 24.1042 270.625 26.6875C271.167 29.2292 271.708 31.625 272.25 33.875C272.792 36.0833 273.271 37.9792 273.688 39.5625C274.146 41.1042 274.479 42.0208 274.688 42.3125C275.312 43.1875 275.708 43.7708 275.875 44.0625C276.042 44.3125 276.333 44.5417 276.75 44.75C276.917 44.8333 277.188 44.9583 277.562 45.125C277.896 45.2917 278.333 45.5 278.875 45.75C279.458 46 280.188 46.2917 281.062 46.625C279.438 46.7083 278.042 46.7708 276.875 46.8125C275.708 46.8125 274.75 46.8333 274 46.875C273.125 46.9167 272.375 46.9583 271.75 47C271.125 47 270.375 47.0417 269.5 47.125C268.75 47.2083 267.771 47.2917 266.562 47.375C265.396 47.4583 264.021 47.5417 262.438 47.625C263.271 47.0417 263.938 46.5208 264.438 46.0625C264.979 45.5625 265.396 45.1458 265.688 44.8125C266.021 44.3958 266.25 44.0208 266.375 43.6875C266.458 43.3125 266.521 42.75 266.562 42C266.604 41.3333 266.604 40.4583 266.562 39.375C266.521 38.25 266.417 36.7917 266.25 35L249.812 36.6875C249.396 37.3958 249.083 38.0208 248.875 38.5625C248.667 39.0625 248.521 39.5 248.438 39.875C248.312 40.3333 248.271 40.7083 248.312 41C248.396 41.3333 248.542 41.7292 248.75 42.1875C248.958 42.6042 249.25 43.1042 249.625 43.6875C250.042 44.2292 250.646 44.875 251.438 45.625C250.396 45.5833 249.333 45.5625 248.25 45.5625C247.167 45.5625 246.167 45.5833 245.25 45.625C244.167 45.6667 243.104 45.7083 242.062 45.75C241.021 45.7917 239.833 45.8542 238.5 45.9375C237.375 46.0208 236.062 46.125 234.562 46.25C233.021 46.3333 231.375 46.4583 229.625 46.625C230.708 46.125 231.625 45.625 232.375 45.125C233.125 44.5833 233.75 44.0833 234.25 43.625C234.833 43.125 235.333 42.6458 235.75 42.1875C236.042 41.7708 236.625 40.8125 237.5 39.3125C238.375 37.7708 239.354 35.9583 240.438 33.875C241.562 31.7917 242.729 29.5625 243.938 27.1875C245.188 24.8125 246.312 22.5833 247.312 20.5C248.312 18.375 249.125 16.5417 249.75 15C250.375 13.4583 250.688 12.4583 250.688 12C250.604 11.4583 250.396 10.8542 250.062 10.1875C249.771 9.60417 249.312 8.9375 248.688 8.1875C248.104 7.4375 247.25 6.60417 246.125 5.6875ZM265.5 30.375C265.25 28.9167 265.021 27.6667 264.812 26.625C264.604 25.5417 264.438 24.6458 264.312 23.9375C264.146 23.1042 264.021 22.375 263.938 21.75C263.812 21.1667 263.667 20.4167 263.5 19.5C263.333 18.7083 263.125 17.7292 262.875 16.5625C262.667 15.3542 262.396 13.9167 262.062 12.25C259.688 17 257.833 20.6875 256.5 23.3125C255.208 25.8958 254.271 27.7917 253.688 29C252.979 30.4167 252.583 31.25 252.5 31.5L265.5 30.375ZM278.438 4.9375C279.854 5.10417 281.042 5.22917 282 5.3125C283 5.35417 283.812 5.41667 284.438 5.5C285.188 5.58333 285.771 5.625 286.188 5.625C286.646 5.66667 287.333 5.64583 288.25 5.5625C289.042 5.47917 290.104 5.375 291.438 5.25C292.812 5.125 294.562 4.9375 296.688 4.6875C295.729 5.52083 294.958 6.33333 294.375 7.125C293.833 7.875 293.417 8.54167 293.125 9.125C292.75 9.83333 292.521 10.5 292.438 11.125C292.271 12.125 292.125 13.5 292 15.25C291.917 16.9583 291.833 18.8333 291.75 20.875C291.667 22.9167 291.625 25.0208 291.625 27.1875C291.625 29.3542 291.646 31.4167 291.688 33.375C291.771 35.2917 291.896 37 292.062 38.5C292.271 40 292.521 41.0833 292.812 41.75C293.229 42.5 293.667 43.25 294.125 44C294.542 44.625 295.042 45.2708 295.625 45.9375C296.208 46.6042 296.875 47.1458 297.625 47.5625C295.167 47.4375 293.208 47.375 291.75 47.375H289.5C288.833 47.375 287.979 47.4167 286.938 47.5C286.062 47.5833 284.958 47.6667 283.625 47.75C282.292 47.8333 280.688 47.9583 278.812 48.125C279.771 47.0833 280.521 46.0833 281.062 45.125C281.604 44.1667 282.042 43.3333 282.375 42.625C282.75 41.7917 283 41 283.125 40.25C283.292 39.1667 283.417 37.8333 283.5 36.25C283.625 34.625 283.708 32.8958 283.75 31.0625C283.792 29.1875 283.792 27.2917 283.75 25.375C283.75 23.4167 283.708 21.5417 283.625 19.75C283.542 17.9583 283.417 16.3333 283.25 14.875C283.125 13.4167 282.958 12.25 282.75 11.375C282.625 10.8333 282.375 10.2292 282 9.5625C281.667 8.97917 281.208 8.3125 280.625 7.5625C280.083 6.77083 279.354 5.89583 278.438 4.9375Z" fill="#F5F5F5"/>
</svg>
